<?xml version="1.0" encoding="UTF-8"?>
<svg id="Layer_1" xmlns="http://www.w3.org/2000/svg" version="1.1" viewBox="0 0 1634.3 1359.6">
  <!-- Generator: Adobe Illustrator 29.3.1, SVG Export Plug-In . SVG Version: 2.1.0 Build 151)  -->
  <defs>
    <style>
      .st0 {
        stroke-width: 26.4px;
      }

      .st0, .st1 {
        fill: none;
      }

      .st0, .st1, .st2 {
        stroke: #5e4747;
      }

      .st0, .st1, .st2, .st3 {
        stroke-miterlimit: 10;
      }

      .st1, .st2 {
        stroke-width: 22.3px;
      }

      .st4 {
        fill: #1e6eb1;
      }

      .st2, .st3 {
        fill: #fff;
      }

      .st3 {
        stroke: #1e6eb1;
        stroke-linecap: round;
        stroke-width: 17.6px;
      }
    </style>
  </defs>
  <g>
    <polygon class="st4" points="1363.9 1321.7 1363.9 1133.9 1551.7 1133.9 1514.1 1171.5 1401.5 1171.5 1401.5 1284.1 1363.9 1321.7"/>
    <polygon class="st4" points="1298.2 1256 1298.2 1068.2 1485.9 1068.2 1448.4 1105.7 1335.7 1105.7 1335.7 1218.4 1298.2 1256"/>
    <polygon class="st4" points="1232.4 1190.3 1232.4 1002.5 1420.2 1002.5 1382.7 1040 1270 1040 1270 1152.7 1232.4 1190.3"/>
    <polygon class="st4" points="293 250.8 293 63 480.8 63 443.2 100.6 330.5 100.6 330.5 213.2 293 250.8"/>
    <rect class="st4" x="857.2" y="-150.8" width="34.3" height="1590.5" transform="translate(-199.6 807) rotate(-45)"/>
  </g>
  <g>
    <polygon class="st4" points="82.1 1133.9 269.9 1133.9 269.8 1321.7 232.3 1284.1 232.3 1171.5 119.6 1171.5 82.1 1133.9"/>
    <polygon class="st4" points="147.8 1068.2 335.6 1068.2 335.6 1255.9 298 1218.4 298 1105.7 185.4 1105.7 147.8 1068.2"/>
    <polygon class="st4" points="213.5 1002.5 401.3 1002.5 401.3 1190.2 363.7 1152.7 363.7 1040 251.1 1040 213.5 1002.5"/>
    <polygon class="st4" points="1153 63 1340.8 63 1340.7 250.8 1303.2 213.2 1303.2 100.6 1190.5 100.6 1153 63"/>
    <rect class="st4" x="-36" y="627.3" width="1590.5" height="34.3" transform="translate(-233.3 725.6) rotate(-45)"/>
  </g>
  <g>
    <polygon class="st2" points="491 972 529.9 464.7 485.2 294.3 516.6 242.2 596 242.2 674.6 310.9 815.2 295.2 955.8 312.5 1039.4 242.2 1113.8 242.2 1148.5 295.2 1106.3 459.8 1142.7 972 816.9 1136.3 491 972"/>
    <polyline class="st2" points="748.7 512.3 687.5 545.6 641.8 512.1 688.8 472 748.7 512.3 718.9 712.8 732.1 798.9 817.3 829.5 901.7 798 919.9 722.8 889.3 512.7 946.3 472 992 511 945.3 539.7 889.3 512.7"/>
    <polyline class="st2" points="728.5 775.2 818.9 757.5 818.9 732.1 772 705.4 772 666.5 817.3 654.1 861.2 663.2 866.1 704.6 818.9 732.1 818.9 757.5 907.2 775.2"/>
    <polyline class="st1" points="562.3 420.6 645.3 348.5 589.9 289.3 551 289.3 535 319.1 562.3 420.6 562.6 659.5 728.5 775.2"/>
    <polyline class="st1" points="1070.4 424.5 988.5 347.9 1046.4 289.3 1083.7 289.3 1103.5 317.2 1070.4 424.5 1070.4 664.9 907.2 775.2"/>
  </g>
  <g>
    <polygon class="st3" points="1195.4 1181.5 1059 1181.5 1059 902.6 1193.9 902.6 1143.7 1043.2 1195.4 1181.5"/>
    <polygon class="st3" points="438.3 902.6 574.8 902.6 574.8 1181.5 439.9 1181.5 490.1 1040.8 438.3 902.6"/>
    <rect class="st3" x="535" y="876.2" width="560.1" height="279.3"/>
    <g>
      <path class="st4" d="M649.8,928.7l26.4,73.8h-14.6l-5.6-15.9h-27.6l-5.6,15.9h-14.6l26.4-73.8h15.2,0ZM642.1,947.3l-9.3,26.7h18.7l-9.2-26.7h-.2Z"/>
      <path class="st4" d="M742.8,1002.6h-16.2l-15.8-27.8h-9.2v27.8h-14.8v-73.8h40l12.2,7.1v31.8l-12.2,7.1,16,27.8h0ZM701.5,941.4v20.7h22.7v-20.7h-22.7Z"/>
      <path class="st4" d="M796.4,980.9h14.8v15.1l-12.2,7.1h-29.8l-12.2-7.1v-60.7l12.2-7.1h29.8l12.2,7.1v15.1h-14.8v-9.5h-24.8v49.6h24.8v-9.5h0Z"/>
      <path class="st4" d="M856.4,941.4v61.2h-14.8v-61.2h-19.9v-12.7h54.6v12.7h-19.9,0Z"/>
      <path class="st4" d="M945.4,996l-12.2,7.1h-33l-12.2-7.1v-60.7l12.2-7.1h33l12.2,7.1v60.7ZM902.7,940.9v49.6h27.9v-49.6h-27.9Z"/>
      <path class="st4" d="M963.4,965.1v-29.8l12.2-7.1h26.7l12.2,7.1v14h-14.8v-8.4h-21.6v17.6h24.2l12.2,7.1v30.5l-12.2,7.1h-27.7l-12.2-7.1v-14h14.8v8.4h22.7v-18.2h-24.2l-12.2-7.1h-.1Z"/>
      <path class="st4" d="M636.4,1046.5l22,61.5h-12.1l-4.7-13.3h-23l-4.7,13.3h-12.1l22-61.5h12.7-.1ZM630,1062l-7.7,22.2h15.6l-7.6-22.2h-.3Z"/>
      <path class="st4" d="M670.7,1108v-61.5h12.3v51h21v10.5h-33.3Z"/>
      <path class="st4" d="M717.1,1108v-61.5h12.3v51h21v10.5h-33.3Z"/>
      <path class="st4" d="M763.6,1108v-61.5h12.3v61.5h-12.3Z"/>
      <path class="st4" d="M822.9,1046.5l22,61.5h-12.1l-4.7-13.3h-23l-4.7,13.3h-12.1l22-61.5h12.7-.1ZM816.5,1062l-7.7,22.2h15.6l-7.6-22.2h-.3Z"/>
      <path class="st4" d="M869.5,1068.2v39.8h-12.3v-61.5h11.5l26.5,39.8h.2v-39.8h12.3v61.5h-11.5l-26.5-39.8h-.2Z"/>
      <path class="st4" d="M959.1,1090h12.3v12.6l-10.2,5.9h-24.9l-10.2-5.9v-50.6l10.2-5.9h24.9l10.2,5.9v12.6h-12.3v-7.9h-20.6v41.3h20.6v-7.9h0Z"/>
      <path class="st4" d="M1001.3,1081.6v15.8h24.5v10.5h-36.8v-61.5h36.8v10.5h-24.5v14.1h19.2v10.5h-19.2Z"/>
    </g>
  </g>
  <g>
    <line class="st0" x1="689.6" y1="485.2" x2="689.6" y2="513.6"/>
    <line class="st0" x1="945" y1="482.8" x2="945" y2="511.1"/>
  </g>
</svg>